# Blender v2.74 (sub 0) OBJ File: ''
# www.blender.org
mtllib arrow.mtl
o Arrow
v -2.542512 8.544701 -8.613897
v 2.457306 8.544701 -8.656500
v 2.457306 7.544700 -8.656500
v -2.542512 7.544700 -8.613897
v -4.590131 7.544700 1.403914
v -0.005166 7.544700 5.993620
v -4.590131 8.462642 1.403914
v -4.590131 8.462642 1.403914
v -0.005166 8.544701 5.993620
v -4.590131 8.544701 1.403914
v 4.668254 8.544701 1.325024
v 4.668254 7.610981 1.325024
v 4.668254 7.544700 1.325024
v -4.590131 7.544700 1.403914
v -4.590131 8.544701 1.403914
v -2.460648 8.544701 0.993621
v -2.460648 7.583913 0.993621
v -2.460648 7.583913 0.993621
v -2.460648 7.544700 0.993621
v -5.000000 8.544701 0.993621
v -2.460648 8.544701 0.993621
v -2.460648 8.290765 0.993621
v -2.460648 8.290765 0.993621
v -2.460648 7.544700 0.993621
v -5.000000 7.544700 0.993621
v -2.460648 7.544700 0.993621
v -2.457306 7.544700 1.385740
v -2.460648 8.544701 0.993621
v -2.457306 8.544701 1.385740
v 2.539534 7.544700 0.993621
v 2.539534 8.509748 0.993621
v 2.539534 8.509748 0.993621
v 2.539534 8.544701 0.993621
v 2.539534 8.544701 0.993621
v 5.000000 8.544701 0.993621
v 5.000000 7.544700 0.993621
v 2.539534 7.790747 0.993621
v 2.539534 7.790747 0.993621
v 2.539534 7.544700 0.993621
v 2.539534 7.544700 0.993621
v 2.542512 7.544700 1.343137
v 2.539534 8.544701 0.993621
v 2.542512 8.544701 1.343137
v -2.265405 8.544701 0.993621
v -2.457306 8.544701 1.385740
v 2.542512 8.544701 1.343137
v 2.364015 7.544700 0.993621
v 2.364015 7.544700 0.993621
v 2.542512 7.544700 1.343137
v -2.457306 7.544700 1.385740
vt 0.000000 1.000000
vt 0.000000 0.000000
vt 1.000000 0.000000
vt 1.000000 1.000000
vt 0.082059 0.000000
vt 0.082059 0.917941
vt 0.082059 1.000000
vt 0.066281 0.000000
vt 0.066281 0.933719
vt 0.066281 1.000000
vt 0.933719 0.066281
vt 0.917941 1.000000
vt 0.039213 0.000000
vt 0.039213 0.960787
vt 0.039213 1.000000
vt 0.000000 0.746065
vt 0.253935 0.746065
vt 1.000000 0.746065
vt 0.078424 0.706478
vt 0.921576 0.784902
vt 0.034953 0.000000
vt 0.034953 0.965047
vt 0.034953 1.000000
vt 0.000000 0.246047
vt 0.753953 0.246047
vt 1.000000 0.246047
vt 0.069903 0.210761
vt 0.930097 0.280664
vt 0.039047 0.960953
vt 0.965047 0.000000
vt 0.964898 0.035102
vt 0.960787 1.000000
vn -0.582200 0.577300 -0.572400
vn 0.572400 0.577300 -0.582200
vn 0.572400 -0.577300 -0.582200
vn -0.582200 -0.577300 -0.572400
vn -0.707400 0.000000 0.706700
vn -0.000400 -0.577300 0.816500
vn -0.000400 0.577300 0.816500
vn 0.499700 0.707100 0.500200
vn 0.706700 0.000000 0.707400
vn 0.499700 -0.707100 0.500200
vn 0.000000 -1.000000 0.000000
vn 0.000000 1.000000 0.000000
vn -0.447200 0.894400 0.003800
vn -0.999900 0.000000 0.008500
vn -0.447200 -0.894400 0.003800
vn -0.773300 0.546900 -0.320600
vn 0.000000 0.000000 -1.000000
vn -0.773300 -0.546900 -0.320600
vn 0.447200 -0.894400 -0.003800
vn 0.999900 0.000000 -0.008500
vn 0.447200 0.894400 -0.003800
vn 0.773500 0.546900 -0.320200
vn 0.773500 -0.546900 -0.320200
usemtl Standard
s 1
f 1/1/1 2/2/2 3/3/3
f 1/1/1 3/3/3 4/4/4
f 5/5/5 6/3/6 7/6/5
f 8/6/5 6/3/6 9/4/7
f 8/6/5 9/4/7 10/7/5
f 11/8/8 9/3/7 12/9/9
f 12/9/9 9/3/7 6/4/6
f 12/9/9 6/4/6 13/10/10
f 13/8/10 6/3/6 14/6/11
f 9/1/7 11/11/8 15/12/12
f 16/13/13 1/3/1 17/14/14
f 18/14/14 1/3/1 4/4/4
f 18/14/14 4/4/4 19/15/15
f 20/1/16 21/16/17 22/17/17
f 20/1/16 23/17/17 24/18/17
f 20/1/16 24/18/17 25/4/18
f 20/1/16 25/2/18 5/5/5
f 20/1/16 5/5/5 7/6/5
f 20/1/16 8/6/5 10/7/5
f 25/1/18 26/16/11 27/19/11
f 25/1/18 27/19/11 14/6/11
f 28/18/12 20/4/16 15/12/12
f 28/18/12 15/12/12 29/20/12
f 30/21/19 3/3/3 31/22/20
f 32/22/20 3/3/3 2/4/2
f 32/22/20 2/4/2 33/23/21
f 34/24/17 35/2/22 36/3/23
f 34/24/17 36/3/23 37/25/17
f 38/25/17 36/3/23 39/26/17
f 36/1/23 35/2/22 11/8/8
f 36/1/23 11/8/8 12/9/9
f 36/1/23 12/9/9 13/10/10
f 40/24/11 36/2/23 13/8/10
f 40/24/11 13/8/10 41/27/11
f 11/11/8 35/3/22 42/26/12
f 11/11/8 42/26/12 43/28/12
f 33/21/21 2/3/2 44/29/12
f 44/29/12 2/3/2 1/4/1
f 44/29/12 1/4/1 16/15/13
f 45/1/12 46/2/12 33/21/21
f 45/1/12 33/21/21 44/29/12
f 45/1/12 44/29/12 16/15/13
f 4/1/4 3/2/3 30/30/19
f 4/1/4 30/30/19 47/31/11
f 4/1/4 48/31/11 19/32/15
f 30/30/19 49/3/11 47/31/11
f 48/31/11 49/3/11 50/4/11
f 48/31/11 50/4/11 19/32/15
