# Blender v2.74 (sub 0) OBJ File: ''
# www.blender.org
mtllib arrow.mtl
o Box1
v 0.993900 0.000517 0.050000
v 0.993900 0.000517 -0.050000
v 0.493900 0.500000 -0.050000
v 0.493900 0.500000 0.050000
v 0.493900 -0.500000 -0.050000
v 0.493900 -0.500000 0.050000
vt 0.000000 1.000000
vt 0.000000 0.000000
vt 1.000000 0.000000
vt 1.000000 1.000000
vn -1.000000 0.000000 0.000000
vn 0.706700 0.707500 0.000000
vn 0.707500 -0.706700 0.000000
vn 0.000000 0.000000 1.000000
vn 0.000000 0.000000 -1.000000
usemtl b0b0b0
s 1
f 3/1/1 5/2/1 6/3/1 4/4/1
f 3/1/2 4/2/2 1/3/2 2/4/2
f 6/1/3 5/2/3 2/3/3 1/4/3
f 4/1/4 6/2/4 1/3/4
f 2/1/5 5/3/5 3/4/5
o Box
v 0.500000 0.250000 0.050000
v 0.500000 -0.250000 0.050000
v 0.500000 -0.250000 -0.050000
v 0.500000 0.250000 -0.050000
v -0.500000 0.250000 -0.050000
v -0.500000 -0.250000 -0.050000
v -0.500000 -0.250000 0.050000
v -0.500000 0.250000 0.050000
v -0.500000 0.250000 -0.050000
v -0.500000 0.250000 0.050000
v 0.500000 0.250000 0.050000
v 0.500000 0.250000 -0.050000
v -0.500000 -0.250000 0.050000
v -0.500000 -0.250000 -0.050000
v 0.500000 -0.250000 -0.050000
v 0.500000 -0.250000 0.050000
v -0.500000 0.250000 0.050000
v -0.500000 -0.250000 0.050000
v 0.500000 -0.250000 0.050000
v 0.500000 0.250000 0.050000
v 0.500000 0.250000 -0.050000
v 0.500000 -0.250000 -0.050000
v -0.500000 -0.250000 -0.050000
v -0.500000 0.250000 -0.050000
vt 0.000000 1.000000
vt 0.000000 0.000000
vt 1.000000 0.000000
vt 1.000000 1.000000
vn 1.000000 0.000000 0.000000
vn -1.000000 0.000000 0.000000
vn 0.000000 1.000000 0.000000
vn 0.000000 -1.000000 0.000000
vn 0.000000 0.000000 1.000000
vn 0.000000 0.000000 -1.000000
usemtl b0b0b0
s 1
f 7/5/6 8/6/6 9/7/6 10/8/6
f 11/5/7 12/6/7 13/7/7 14/8/7
f 15/5/8 16/6/8 17/7/8 18/8/8
f 19/5/9 20/6/9 21/7/9 22/8/9
f 23/5/10 24/6/10 25/7/10 26/8/10
f 27/5/11 28/6/11 29/7/11 30/8/11
